<svg width="370" height="110" viewBox="0 0 370 110" fill="none" xmlns="http://www.w3.org/2000/svg">
<g clip-path="url(#clip0)">
<path d="M69.9849 58.1628C70.1858 60.8063 68.3572 63.1531 65.9021 63.4036C64.0225 63.5952 62.3222 62.502 61.5367 60.7947L59.3086 60.9944L57.6265 61.8198C57.2417 62.0079 56.9829 62.382 56.9239 62.8114C56.7649 63.9692 56.4766 65.0843 56.076 66.144C55.9398 66.503 55.9636 66.9036 56.1486 67.2384L56.7479 68.3281L58.4142 69.4651C59.2927 69.1234 60.3154 69.2054 61.1565 69.7791C62.5821 70.7522 62.9237 72.755 61.8636 74.1645C60.951 75.3789 59.2541 75.7125 57.9624 74.9322C57.1395 74.4358 56.6424 73.6116 56.5209 72.7308L54.6742 71.4714L53.5119 71.3271C53.1124 71.2775 52.7151 71.4171 52.4245 71.7C51.4438 72.65 50.336 73.4661 49.1317 74.1195C48.7265 74.3388 48.4666 74.7602 48.4382 75.2254L48.2906 77.6195L49.0216 80.5689C50.2656 80.9221 51.294 81.9253 51.6322 83.2897C52.143 85.3526 50.8831 87.4454 48.8287 87.9106C46.9751 88.3308 45.0739 87.2319 44.4848 85.3953C44.0263 83.9616 44.4474 82.4794 45.4167 81.5109L44.6823 78.5442L43.5484 76.6903C43.2442 76.1927 42.7062 75.8984 42.1296 75.8995C42.1262 75.8995 42.1239 75.8995 42.1205 75.8995C41.1273 75.8995 40.1557 75.7991 39.2159 75.6109C38.6563 75.4978 38.0786 75.6779 37.6859 76.0992L36.1876 77.7072L34.51 81.2465C34.9027 82.058 34.9379 83.0381 34.5225 83.9166C33.7756 85.4911 31.871 86.1168 30.3489 85.2464C29.0458 84.4995 28.4817 82.8511 29.0492 81.4428C29.4363 80.4823 30.2388 79.8405 31.1468 79.6258L32.8346 76.0634L33.1661 73.6728C33.2262 73.2318 33.0605 72.7874 32.72 72.508C31.3772 71.3998 30.2263 70.0619 29.3262 68.552C29.1026 68.1768 28.7008 67.9494 28.2695 67.946L25.9222 67.9229L23.3524 68.7448C23.1719 70.3701 22.0777 71.8142 20.4455 72.336C18.2526 73.0379 15.9167 71.8119 15.205 69.5956C14.4933 67.3803 15.6953 64.9573 17.8712 64.2255C19.3945 63.7129 20.9949 64.1389 22.0777 65.1859L24.8053 64.3132L26.7973 62.8691C27.0935 62.6555 27.2513 62.2977 27.2218 61.9306C27.1889 61.5231 27.1719 61.1122 27.1719 60.6966C27.1719 58.4387 27.6599 56.295 28.5317 54.3672C28.6588 54.0844 28.6554 53.7589 28.5214 53.4795L27.9312 52.2524L26.3296 51.023C25.433 51.3151 24.4171 51.1754 23.6089 50.5555C22.2378 49.5028 22.0062 47.4838 23.1413 46.1366C24.1186 44.9765 25.8314 44.7387 27.0788 45.5906C27.8733 46.1332 28.3251 46.9828 28.3977 47.8693L30.1729 49.2315L31.9618 49.5559C33.2637 48.3265 34.7813 47.3302 36.4486 46.6319L36.8686 44.0369L36.3385 41.3564C34.7699 40.9455 33.4964 39.723 33.1536 38.0931C32.6701 35.7901 34.2262 33.5472 36.6303 33.0843C39.0332 32.6214 41.3736 34.1117 41.8572 36.4146C42.2193 38.1381 41.4395 39.8269 40.0161 40.7619L40.5167 43.29L41.7459 45.2847C41.8265 45.4152 41.9673 45.4937 42.1182 45.4937H42.1205C44.9354 45.4937 47.571 46.2902 49.8218 47.6731C49.9456 47.7481 50.0977 47.7585 50.2282 47.6962L52.1532 46.7889L54.4006 44.3162C54.2656 43.4297 54.5141 42.49 55.16 41.7801C56.3268 40.4976 58.3245 40.4653 59.5299 41.7478C60.5867 42.8733 60.6275 44.6683 59.6241 45.8434C58.9749 46.6042 58.043 46.9551 57.1327 46.8858L54.8853 49.3585L54.1555 51.3555C54.1044 51.494 54.1271 51.6487 54.2122 51.7688C55.0987 53.0062 55.8058 54.3845 56.2939 55.8644C56.429 56.2708 56.7468 56.5871 57.1531 56.7037L58.9806 57.2243L61.3551 57.0107C61.9374 55.3034 63.3914 54.0117 65.1768 53.8293C67.6319 53.5788 69.7851 55.5193 69.9849 58.1628Z" fill="#5E72E4"/>
<path fill-rule="evenodd" clip-rule="evenodd" d="M52.6314 60.9825C52.6314 66.8444 47.8793 71.5965 42.0174 71.5965C36.1554 71.5965 31.4033 66.8444 31.4033 60.9825C31.4033 55.1205 36.1554 50.3684 42.0174 50.3684C47.8793 50.3684 52.6314 55.1205 52.6314 60.9825ZM41.5009 58.0553C41.5009 59.5695 40.2735 60.7969 38.7593 60.7969C37.2452 60.7969 36.0178 59.5695 36.0178 58.0553C36.0178 56.5412 37.2452 55.3138 38.7593 55.3138C40.2735 55.3138 41.5009 56.5412 41.5009 58.0553ZM40.96 68.4369C41.9906 68.4369 42.8261 67.6014 42.8261 66.5709C42.8261 65.5403 41.9906 64.7048 40.96 64.7048C39.9295 64.7048 39.094 65.5403 39.094 66.5709C39.094 67.6014 39.9295 68.4369 40.96 68.4369ZM48.3866 60.9825C48.3866 61.8479 47.685 62.5494 46.8196 62.5494C45.9542 62.5494 45.2526 61.8479 45.2526 60.9825C45.2526 60.1171 45.9542 59.4155 46.8196 59.4155C47.685 59.4155 48.3866 60.1171 48.3866 60.9825Z" fill="#E9E9E9"/>
<g filter="url(#filter0_d)">
<path fill-rule="evenodd" clip-rule="evenodd" d="M67.25 35.75C80.919 49.419 80.919 71.581 67.25 85.25C53.5809 98.919 31.419 98.919 17.75 85.25C4.08095 71.581 4.08095 49.419 17.75 35.75C31.419 22.081 53.5809 22.081 67.25 35.75ZM62.0732 83.2614L19.7386 40.9268C9.57531 52.7202 10.087 70.5396 21.2737 81.7263C32.4604 92.913 50.2798 93.4247 62.0732 83.2614ZM63.7263 39.2737C74.8559 50.4034 75.4192 68.0982 65.4161 79.8923L23.1077 37.5839C34.9018 27.5808 52.5966 28.1441 63.7263 39.2737Z" fill="#5E72E4"/>
</g>
<path d="M141.18 68.4844C140.607 74.5521 138.367 79.2917 134.461 82.7031C130.555 86.0885 125.359 87.7812 118.875 87.7812C114.344 87.7812 110.346 86.7135 106.883 84.5781C103.445 82.4167 100.789 79.3568 98.9141 75.3984C97.0391 71.4401 96.0625 66.8438 95.9844 61.6094V56.2969C95.9844 50.9323 96.9349 46.2057 98.8359 42.1172C100.737 38.0286 103.458 34.8776 107 32.6641C110.568 30.4505 114.682 29.3438 119.344 29.3438C125.62 29.3438 130.672 31.0495 134.5 34.4609C138.328 37.8724 140.555 42.6901 141.18 48.9141H131.336C130.867 44.8255 129.669 41.8828 127.742 40.0859C125.841 38.263 123.042 37.3516 119.344 37.3516C115.047 37.3516 111.74 38.9271 109.422 42.0781C107.13 45.2031 105.958 49.7995 105.906 55.8672V60.9062C105.906 67.0521 107 71.7396 109.188 74.9688C111.401 78.1979 114.63 79.8125 118.875 79.8125C122.755 79.8125 125.672 78.9401 127.625 77.1953C129.578 75.4505 130.815 72.5469 131.336 68.4844H141.18ZM195.438 60.0469C195.438 65.6198 194.474 70.5156 192.547 74.7344C190.62 78.9271 187.859 82.1562 184.266 84.4219C180.698 86.6615 176.583 87.7812 171.922 87.7812C167.312 87.7812 163.198 86.6615 159.578 84.4219C155.984 82.1562 153.198 78.9401 151.219 74.7734C149.266 70.6068 148.276 65.8021 148.25 60.3594V57.1562C148.25 51.6094 149.227 46.7135 151.18 42.4688C153.159 38.224 155.932 34.9818 159.5 32.7422C163.094 30.4766 167.208 29.3438 171.844 29.3438C176.479 29.3438 180.581 30.4635 184.148 32.7031C187.742 34.9167 190.516 38.1198 192.469 42.3125C194.422 46.4792 195.411 51.3359 195.438 56.8828V60.0469ZM185.555 57.0781C185.555 50.776 184.357 45.9453 181.961 42.5859C179.591 39.2266 176.219 37.5469 171.844 37.5469C167.573 37.5469 164.227 39.2266 161.805 42.5859C159.409 45.9193 158.185 50.6458 158.133 56.7656V60.0469C158.133 66.2969 159.344 71.1276 161.766 74.5391C164.214 77.9505 167.599 79.6562 171.922 79.6562C176.297 79.6562 179.656 77.9896 182 74.6562C184.37 71.3229 185.555 66.4531 185.555 60.0469V57.0781ZM224.461 74.6172L238.914 30.125H249.773L229.305 87H219.734L199.344 30.125H210.164L224.461 74.6172ZM266.648 87H256.805V30.125H266.648V87ZM298.836 74.6172L313.289 30.125H324.148L303.68 87H294.109L273.719 30.125H284.539L298.836 74.6172ZM363.836 61.6094H340.477V79.1094H367.781V87H330.594V30.125H367.508V38.0938H340.477V53.7969H363.836V61.6094Z" fill="#5E72E4"/>
</g>
<defs>
<filter id="filter0_d" x="-11" y="11" width="107" height="107" filterUnits="userSpaceOnUse" color-interpolation-filters="sRGB">
<feFlood flood-opacity="0" result="BackgroundImageFix"/>
<feColorMatrix in="SourceAlpha" type="matrix" values="0 0 0 0 0 0 0 0 0 0 0 0 0 0 0 0 0 0 127 0"/>
<feOffset dy="4"/>
<feGaussianBlur stdDeviation="2"/>
<feColorMatrix type="matrix" values="0 0 0 0 0 0 0 0 0 0 0 0 0 0 0 0 0 0 0.25 0"/>
<feBlend mode="normal" in2="BackgroundImageFix" result="effect1_dropShadow"/>
<feBlend mode="normal" in="SourceGraphic" in2="effect1_dropShadow" result="shape"/>
</filter>
<clipPath id="clip0">
<rect width="370" height="110" fill="white"/>
</clipPath>
</defs>
</svg>
