<svg width="258" height="258" viewBox="0 0 258 258" fill="none" xmlns="http://www.w3.org/2000/svg">
<g filter="url(#filter0_d)">
<path d="M253.931 114.376C254.845 126.392 246.533 137.059 235.373 138.198C226.829 139.069 219.101 134.1 215.531 126.34L205.403 127.247L197.757 130.999C196.008 131.854 194.831 133.554 194.563 135.506C193.841 140.769 192.53 145.838 190.709 150.655C190.09 152.286 190.198 154.107 191.039 155.629L193.763 160.582L201.337 165.751C205.331 164.197 209.979 164.57 213.802 167.178C220.282 171.601 221.835 180.705 217.016 187.111C212.868 192.631 205.155 194.148 199.284 190.601C195.543 188.345 193.283 184.598 192.731 180.595L184.337 174.87L179.054 174.214C177.238 173.988 175.432 174.623 174.111 175.909C169.654 180.227 164.618 183.937 159.144 186.907C157.302 187.904 156.121 189.819 155.992 191.934L155.321 202.816L158.644 216.222C164.298 217.828 168.973 222.388 170.51 228.59C172.832 237.966 167.105 247.479 157.767 249.594C149.341 251.504 140.7 246.509 138.022 238.16C135.938 231.644 137.852 224.906 142.258 220.504L138.92 207.019L133.765 198.592C132.383 196.331 129.937 194.993 127.316 194.998C127.301 194.998 127.29 194.998 127.275 194.998C122.761 194.998 118.344 194.541 114.072 193.686C111.529 193.172 108.903 193.99 107.118 195.906L100.307 203.215L92.6817 219.302C94.4668 222.991 94.6268 227.446 92.7384 231.439C89.3436 238.596 80.6862 241.44 73.7676 237.484C67.8447 234.089 65.2805 226.596 67.8602 220.194C69.6195 215.829 73.2671 212.911 77.3946 211.935L85.0665 195.743L86.573 184.876C86.8465 182.872 86.0932 180.852 84.5454 179.582C78.4419 174.545 73.2104 168.463 69.119 161.6C68.1026 159.895 66.2762 158.861 64.3157 158.845L53.6462 158.74L41.9655 162.476C41.1451 169.864 36.1715 176.428 28.7524 178.8C18.7846 181.99 8.1667 176.418 4.9318 166.343C1.6969 156.274 7.16063 145.261 17.0511 141.934C23.9749 139.604 31.2495 141.54 36.1715 146.3L48.5694 142.333L57.624 135.769C58.9706 134.798 59.6878 133.171 59.5536 131.503C59.404 129.651 59.3266 127.783 59.3266 125.894C59.3266 115.63 61.5451 105.886 65.5075 97.1238C66.0853 95.8383 66.0699 94.3586 65.4611 93.0888L62.7782 87.5111L55.4984 81.923C51.4225 83.2505 46.8049 82.6156 43.1315 79.7979C36.899 75.0125 35.8465 65.8354 41.0058 59.712C45.448 54.4387 53.2335 53.3578 58.9036 57.2301C62.5151 59.6963 64.5685 63.5581 64.8987 67.5879L72.9679 73.7795L81.099 75.2539C87.0168 69.6657 93.9148 65.1375 101.494 61.963L103.403 50.1675L100.993 37.9838C93.8632 36.1158 88.0744 30.5591 86.5163 23.1502C84.3184 12.6823 91.3919 2.48719 102.319 0.383105C113.242 -1.72098 123.88 5.05302 126.078 15.521C127.724 23.3549 124.179 31.0314 117.71 35.2815L119.985 46.7727L125.572 55.8396C125.939 56.4326 126.578 56.7894 127.265 56.7894H127.275C140.07 56.7894 152.05 60.4099 162.281 66.6959C162.843 67.0369 163.535 67.0842 164.128 66.8008L172.878 62.6766L183.094 51.4373C182.48 47.4076 183.61 43.1364 186.545 39.9095C191.849 34.0799 200.93 33.933 206.409 39.7626C211.212 44.8785 211.398 53.0377 206.837 58.3792C203.886 61.8371 199.65 63.4322 195.512 63.1174L185.297 74.3566L181.979 83.4341C181.747 84.0638 181.85 84.7669 182.237 85.3126C186.267 90.9375 189.481 97.2025 191.7 103.929C192.314 105.776 193.758 107.214 195.605 107.744L203.912 110.11L214.705 109.14C217.352 101.379 223.961 95.5077 232.076 94.6786C243.236 93.54 253.023 102.36 253.931 114.376Z" fill="white" fill-opacity="0.5"/>
</g>
<path fill-rule="evenodd" clip-rule="evenodd" d="M177.589 125.894C177.589 154.154 155.063 177.063 127.275 177.063C99.4876 177.063 76.9613 154.154 76.9613 125.894C76.9613 97.6333 99.4876 74.7239 127.275 74.7239C155.063 74.7239 177.589 97.6333 177.589 125.894ZM124.827 111.782C124.827 119.082 119.008 124.999 111.831 124.999C104.654 124.999 98.8352 119.082 98.8352 111.782C98.8352 104.483 104.654 98.5651 111.831 98.5651C119.008 98.5651 124.827 104.483 124.827 111.782ZM122.263 161.831C127.148 161.831 131.109 157.803 131.109 152.835C131.109 147.866 127.148 143.839 122.263 143.839C117.378 143.839 113.417 147.866 113.417 152.835C113.417 157.803 117.378 161.831 122.263 161.831ZM157.467 125.894C157.467 130.066 154.141 133.448 150.039 133.448C145.937 133.448 142.611 130.066 142.611 125.894C142.611 121.721 145.937 118.339 150.039 118.339C154.141 118.339 157.467 121.721 157.467 125.894Z" fill="#E9E9E9" fill-opacity="0.5"/>
<defs>
<filter id="filter0_d" x="0" y="0" width="258" height="258" filterUnits="userSpaceOnUse" color-interpolation-filters="sRGB">
<feFlood flood-opacity="0" result="BackgroundImageFix"/>
<feColorMatrix in="SourceAlpha" type="matrix" values="0 0 0 0 0 0 0 0 0 0 0 0 0 0 0 0 0 0 127 0"/>
<feOffset dy="4"/>
<feGaussianBlur stdDeviation="2"/>
<feColorMatrix type="matrix" values="0 0 0 0 0 0 0 0 0 0 0 0 0 0 0 0 0 0 0.25 0"/>
<feBlend mode="normal" in2="BackgroundImageFix" result="effect1_dropShadow"/>
<feBlend mode="normal" in="SourceGraphic" in2="effect1_dropShadow" result="shape"/>
</filter>
</defs>
</svg>
