<svg width="300" height="300" viewBox="0 0 300 300" fill="none" xmlns="http://www.w3.org/2000/svg">
<g clip-path="url(#clip0)">
<path d="M249.945 141.501C250.676 151.114 244.026 159.648 235.099 160.558C228.264 161.255 222.081 157.28 219.224 151.072L211.122 151.798L205.005 154.799C203.606 155.483 202.665 156.843 202.45 158.405C201.873 162.615 200.824 166.67 199.367 170.524C198.872 171.829 198.959 173.286 199.631 174.503L201.811 178.466L207.87 182.6C211.064 181.358 214.783 181.656 217.842 183.742C223.026 187.281 224.268 194.564 220.413 199.689C217.095 204.105 210.924 205.318 206.227 202.481C203.235 200.676 201.427 197.678 200.985 194.476L194.27 189.896L190.043 189.371C188.59 189.191 187.146 189.699 186.089 190.727C182.523 194.182 178.495 197.15 174.115 199.525C172.642 200.323 171.697 201.855 171.593 203.547L171.057 212.253L173.715 222.978C178.239 224.262 181.978 227.91 183.208 232.872C185.066 240.373 180.484 247.983 173.013 249.675C166.273 251.203 159.36 247.207 157.218 240.528C155.55 235.315 157.081 229.925 160.606 226.403L157.936 215.615L153.812 208.874C152.706 207.064 150.75 205.994 148.653 205.998C148.641 205.998 148.632 205.998 148.62 205.998C145.008 205.998 141.475 205.633 138.058 204.949C136.023 204.537 133.922 205.192 132.494 206.724L127.046 212.572L120.945 225.442C122.373 228.393 122.501 231.957 120.991 235.151C118.275 240.877 111.349 243.152 105.814 239.987C101.076 237.271 99.0244 231.277 101.088 226.156C102.496 222.663 105.414 220.329 108.716 219.548L114.853 206.594L116.058 197.901C116.277 196.297 115.675 194.681 114.436 193.666C109.554 189.636 105.368 184.771 102.095 179.28C101.282 177.916 99.821 177.089 98.2526 177.076L89.717 176.992L80.3724 179.981C79.7161 185.891 75.7372 191.143 69.8019 193.04C61.8277 195.592 53.3334 191.134 50.7454 183.075C48.1575 175.019 52.5285 166.209 60.4409 163.547C65.9799 161.683 71.7996 163.232 75.7372 167.04L85.6555 163.866L92.8992 158.615C93.9765 157.838 94.5502 156.537 94.4429 155.202C94.3232 153.72 94.2613 152.226 94.2613 150.715C94.2613 142.504 96.0361 134.709 99.206 127.699C99.6683 126.671 99.6559 125.487 99.1689 124.471L97.0226 120.009L91.1987 115.538C87.938 116.6 84.2439 116.092 81.3052 113.838C76.3192 110.01 75.4772 102.668 79.6047 97.7696C83.1584 93.5509 89.3868 92.6862 93.9228 95.7841C96.8121 97.757 98.4548 100.847 98.719 104.07L105.174 109.024L111.679 110.203C116.413 105.733 121.932 102.11 127.995 99.5704L129.522 90.134L127.595 80.387C121.891 78.8927 117.26 74.4473 116.013 68.5202C114.255 60.1458 119.913 51.9898 128.655 50.3065C137.393 48.6232 145.904 54.0424 147.662 62.4168C148.979 68.6839 146.144 74.8251 140.968 78.2252L142.788 87.4181L147.258 94.6717C147.551 95.1461 148.063 95.4315 148.612 95.4315H148.62C158.856 95.4315 168.44 98.3279 176.625 103.357C177.075 103.63 177.628 103.667 178.102 103.441L185.103 100.141L193.275 91.1499C192.784 87.9261 193.688 84.5091 196.036 81.9276C200.279 77.264 207.544 77.1464 211.927 81.81C215.77 85.9028 215.918 92.4302 212.27 96.7034C209.909 99.4697 206.52 100.746 203.21 100.494L195.037 109.485L192.384 116.747C192.198 117.251 192.28 117.814 192.59 118.25C195.813 122.75 198.385 127.762 200.16 133.143C200.651 134.621 201.807 135.771 203.284 136.195L209.929 138.088L218.564 137.312C220.681 131.103 225.969 126.406 232.461 125.743C241.389 124.832 249.219 131.888 249.945 141.501Z" fill="white"/>
<path fill-rule="evenodd" clip-rule="evenodd" d="M188.871 150.715C188.871 173.323 170.85 191.651 148.62 191.651C126.39 191.651 108.369 173.323 108.369 150.715C108.369 128.107 126.39 109.779 148.62 109.779C170.85 109.779 188.871 128.107 188.871 150.715ZM146.661 139.426C146.661 145.265 142.007 149.999 136.265 149.999C130.523 149.999 125.868 145.265 125.868 139.426C125.868 133.586 130.523 128.852 136.265 128.852C142.007 128.852 146.661 133.586 146.661 139.426ZM144.61 179.465C148.519 179.465 151.687 176.243 151.687 172.268C151.687 168.293 148.519 165.071 144.61 165.071C140.702 165.071 137.534 168.293 137.534 172.268C137.534 176.243 140.702 179.465 144.61 179.465ZM172.774 150.715C172.774 154.053 170.113 156.758 166.831 156.758C163.549 156.758 160.889 154.053 160.889 150.715C160.889 147.377 163.549 144.671 166.831 144.671C170.113 144.671 172.774 147.377 172.774 150.715Z" fill="#E9E9E9"/>
<g filter="url(#filter0_d)">
<path fill-rule="evenodd" clip-rule="evenodd" d="M253.798 46.2018C311.401 103.804 311.401 197.196 253.798 254.798C196.196 312.401 102.804 312.401 45.2017 254.798C-12.4006 197.196 -12.4006 103.804 45.2017 46.2018C102.804 -11.4006 196.196 -11.4006 253.798 46.2018ZM231.983 246.418L53.5819 68.017C10.753 117.716 12.9093 192.807 60.0509 239.949C107.193 287.091 182.284 289.247 231.983 246.418ZM238.949 61.051C285.85 107.952 288.224 182.519 246.07 232.221L67.7793 53.9301C117.481 11.7762 192.048 14.1498 238.949 61.051Z" fill="white"/>
</g>
</g>
<defs>
<filter id="filter0_d" x="-63.0966" y="-58.0965" width="425.193" height="425.193" filterUnits="userSpaceOnUse" color-interpolation-filters="sRGB">
<feFlood flood-opacity="0" result="BackgroundImageFix"/>
<feColorMatrix in="SourceAlpha" type="matrix" values="0 0 0 0 0 0 0 0 0 0 0 0 0 0 0 0 0 0 127 0"/>
<feOffset dy="4"/>
<feGaussianBlur stdDeviation="2"/>
<feColorMatrix type="matrix" values="0 0 0 0 0 0 0 0 0 0 0 0 0 0 0 0 0 0 0.25 0"/>
<feBlend mode="normal" in2="BackgroundImageFix" result="effect1_dropShadow"/>
<feBlend mode="normal" in="SourceGraphic" in2="effect1_dropShadow" result="shape"/>
</filter>
<clipPath id="clip0">
<rect width="300" height="300" fill="white"/>
</clipPath>
</defs>
</svg>
