<svg width="300" height="300" viewBox="0 0 300 300" fill="none" xmlns="http://www.w3.org/2000/svg">
<path d="M274.931 139.376C275.845 151.392 267.533 162.059 256.373 163.198C247.829 164.069 240.101 159.1 236.531 151.34L226.403 152.247L218.757 155.999C217.008 156.854 215.831 158.554 215.563 160.506C214.841 165.769 213.53 170.838 211.709 175.655C211.09 177.286 211.198 179.107 212.039 180.629L214.763 185.582L222.337 190.751C226.331 189.197 230.979 189.57 234.802 192.178C241.282 196.601 242.835 205.705 238.016 212.111C233.868 217.631 226.155 219.148 220.284 215.601C216.543 213.345 214.283 209.598 213.731 205.595L205.337 199.87L200.054 199.214C198.238 198.988 196.432 199.623 195.111 200.909C190.654 205.227 185.618 208.937 180.144 211.907C178.302 212.904 177.121 214.819 176.992 216.934L176.321 227.816L179.644 241.222C185.298 242.828 189.973 247.388 191.51 253.59C193.832 262.966 188.105 272.479 178.767 274.594C170.341 276.504 161.7 271.509 159.022 263.16C156.938 256.644 158.852 249.906 163.258 245.504L159.92 232.019L154.765 223.592C153.383 221.331 150.937 219.993 148.316 219.998C148.301 219.998 148.29 219.998 148.275 219.998C143.761 219.998 139.344 219.541 135.072 218.686C132.529 218.172 129.903 218.99 128.118 220.906L121.307 228.215L113.682 244.302C115.467 247.991 115.627 252.446 113.738 256.439C110.344 263.596 101.686 266.44 94.7676 262.484C88.8447 259.089 86.2805 251.596 88.8602 245.194C90.6195 240.829 94.2671 237.911 98.3946 236.935L106.067 220.743L107.573 209.876C107.846 207.872 107.093 205.852 105.545 204.582C99.4419 199.545 94.2104 193.463 90.119 186.6C89.1026 184.895 87.2762 183.861 85.3157 183.845L74.6462 183.74L62.9655 187.476C62.1451 194.864 57.1715 201.428 49.7524 203.8C39.7846 206.99 29.1667 201.418 25.9318 191.343C22.6969 181.274 28.1606 170.261 38.0511 166.934C44.9749 164.604 52.2495 166.54 57.1715 171.3L69.5694 167.333L78.624 160.769C79.9706 159.798 80.6878 158.171 80.5536 156.503C80.404 154.651 80.3266 152.783 80.3266 150.894C80.3266 140.63 82.5451 130.886 86.5075 122.124C87.0853 120.838 87.0699 119.359 86.4611 118.089L83.7782 112.511L76.4984 106.923C72.4225 108.25 67.8049 107.616 64.1315 104.798C57.899 100.013 56.8465 90.8354 62.0058 84.712C66.448 79.4387 74.2335 78.3578 79.9036 82.2301C83.5151 84.6963 85.5685 88.5581 85.8987 92.5879L93.9679 98.7795L102.099 100.254C108.017 94.6657 114.915 90.1375 122.494 86.963L124.403 75.1675L121.993 62.9838C114.863 61.1158 109.074 55.5591 107.516 48.1502C105.318 37.6823 112.392 27.4872 123.319 25.3831C134.242 23.279 144.88 30.053 147.078 40.521C148.724 48.3549 145.179 56.0314 138.71 60.2815L140.985 71.7727L146.572 80.8396C146.939 81.4326 147.578 81.7894 148.265 81.7894H148.275C161.07 81.7894 173.05 85.4099 183.281 91.6959C183.843 92.0369 184.535 92.0842 185.128 91.8008L193.878 87.6766L204.094 76.4373C203.48 72.4076 204.61 68.1364 207.545 64.9095C212.849 59.0799 221.93 58.933 227.409 64.7626C232.212 69.8785 232.398 78.0377 227.837 83.3792C224.886 86.8371 220.65 88.4322 216.512 88.1174L206.297 99.3566L202.979 108.434C202.747 109.064 202.85 109.767 203.237 110.313C207.267 115.937 210.481 122.202 212.7 128.929C213.314 130.776 214.758 132.214 216.605 132.744L224.912 135.11L235.705 134.14C238.352 126.379 244.961 120.508 253.076 119.679C264.236 118.54 274.023 127.36 274.931 139.376Z" fill="white" fill-opacity="0.5"/>
<path fill-rule="evenodd" clip-rule="evenodd" d="M198.589 150.894C198.589 179.154 176.063 202.063 148.275 202.063C120.488 202.063 97.9613 179.154 97.9613 150.894C97.9613 122.633 120.488 99.7239 148.275 99.7239C176.063 99.7239 198.589 122.633 198.589 150.894ZM145.827 136.782C145.827 144.082 140.008 149.999 132.831 149.999C125.654 149.999 119.835 144.082 119.835 136.782C119.835 129.483 125.654 123.565 132.831 123.565C140.008 123.565 145.827 129.483 145.827 136.782ZM143.263 186.831C148.148 186.831 152.109 182.803 152.109 177.835C152.109 172.866 148.148 168.839 143.263 168.839C138.378 168.839 134.417 172.866 134.417 177.835C134.417 182.803 138.378 186.831 143.263 186.831ZM178.467 150.894C178.467 155.066 175.141 158.448 171.039 158.448C166.937 158.448 163.611 155.066 163.611 150.894C163.611 146.721 166.937 143.339 171.039 143.339C175.141 143.339 178.467 146.721 178.467 150.894Z" fill="#E9E9E9"/>
</svg>
